<svg width="32" height="32" viewBox="0 0 32 32" fill="none" xmlns="http://www.w3.org/2000/svg">
<path d="M16.0731 32C7.16739 32.0208 0.0156863 24.9039 2.56522e-05 16.0078C-0.015635 7.13255 7.14129 0 16.0626 0C24.8274 0 31.9895 7.16386 32 15.9452C32.0104 24.8048 24.9005 31.9739 16.0731 32ZM22.7811 11.6928C20.4372 9.32397 18.1716 7.0282 16.0418 4.88374C13.771 7.12212 11.4793 9.38658 9.29724 11.5415C9.99675 12.3137 10.7224 13.112 11.5941 14.0721C12.8783 12.7311 14.1416 11.4632 15.3423 10.1431C15.8434 9.59529 16.1566 9.59007 16.6577 10.1484C17.848 11.4789 19.1008 12.752 20.3902 14.1086C21.3246 13.159 22.0816 12.3972 22.7811 11.6928ZM9.29724 20.3593C11.5524 22.6342 13.8232 24.9248 15.9791 27.1006C18.2395 24.8831 20.5207 22.6499 22.7132 20.5054C21.9667 19.7071 21.2202 18.9088 20.4946 18.1314C19.2 19.4045 17.9158 20.6463 16.6525 21.9142C16.1931 22.3734 15.8852 22.4568 15.3997 21.8933C14.2199 20.5159 12.9618 19.201 11.7664 17.9018C10.738 18.9193 9.97587 19.6758 9.29724 20.3593ZM16.047 13.6129C15.17 14.4582 14.3661 15.2356 13.7083 15.8721C14.4809 16.7591 15.2013 17.5835 15.906 18.3871C16.7674 17.5209 17.5504 16.7278 18.3752 15.8982C17.6183 15.1521 16.8352 14.3851 16.047 13.6129ZM7.05254 13.7225C6.26429 14.4634 5.45516 15.2147 4.74521 15.8826C5.52302 16.7487 6.25907 17.5679 6.9899 18.3871C7.82514 17.547 8.60295 16.7696 9.39642 15.9765C8.62383 15.2304 7.82514 14.4634 7.05254 13.7225ZM24.9892 13.6285C24.1696 14.4373 23.3866 15.2147 22.5566 16.0287C23.3501 16.8218 24.1279 17.594 24.8378 18.2984C25.6679 17.4688 26.4509 16.6809 27.213 15.9139C26.5135 15.1938 25.7618 14.4216 24.9892 13.6285Z" fill="black"/>
<path d="M22.7813 11.6928C22.0818 12.3972 21.3301 13.159 20.3957 14.1034C19.1115 12.7468 17.8535 11.4737 16.6632 10.1432C16.1621 9.58488 15.8437 9.59009 15.3478 10.1379C14.1419 11.458 12.8838 12.7259 11.5996 14.0669C10.7279 13.1068 10.0022 12.3085 9.30273 11.5363C11.4848 9.38139 13.7817 7.11692 16.0473 4.87854C18.1667 7.02822 20.4322 9.32399 22.7813 11.6928Z" fill="#F0B80B"/>
<path d="M9.29736 20.3594C9.98121 19.6811 10.7434 18.9193 11.7613 17.9019C12.9515 19.2011 14.2096 20.5159 15.3946 21.8934C15.8801 22.4621 16.1933 22.3786 16.6474 21.9142C17.9055 20.6464 19.1949 19.3993 20.4895 18.1314C21.2151 18.9089 21.9616 19.7072 22.7081 20.5055C20.5208 22.6499 18.2344 24.8883 15.974 27.1006C13.8181 24.9248 11.5473 22.6343 9.29736 20.3594Z" fill="#F0B80B"/>
<path d="M16.0472 13.6129C16.8354 14.3851 17.6184 15.1521 18.3754 15.8983C17.5506 16.7279 16.7675 17.5157 15.9062 18.3871C15.2067 17.5836 14.4811 16.754 13.7085 15.8722C14.3662 15.2356 15.1754 14.4582 16.0472 13.6129Z" fill="#F0B80B"/>
<path d="M7.05245 13.7224C7.83027 14.4685 8.62374 15.2303 9.39633 15.9764C8.60286 16.7695 7.83027 17.547 6.98981 18.387C6.25376 17.5678 5.52293 16.7487 4.74512 15.8825C5.45507 15.2147 6.25898 14.4581 7.05245 13.7224Z" fill="#F0B80B"/>
<path d="M24.9894 13.6285C25.762 14.4216 26.5137 15.1938 27.2185 15.9139C26.4563 16.6809 25.668 17.4687 24.8433 18.2984C24.1333 17.594 23.3607 16.8218 22.562 16.0287C23.3868 15.2095 24.1698 14.4373 24.9894 13.6285Z" fill="#F0B80B"/>
</svg>
